<svg xmlns="http://www.w3.org/2000/svg" width="25" height="22" viewBox="0 0 25 22">
  <path id="Forma_1" data-name="Forma 1" d="M1029.352,2726a3.412,3.412,0,0,1-3.352-3.423V2711.6a3.388,3.388,0,0,1,3.352-3.4l2.431-.014,2.6-3.812a.825.825,0,0,1,.673-.376h6.772a.829.829,0,0,1,.687.39l2.514,3.8,2.625.014a3.388,3.388,0,0,1,3.352,3.4v10.979a3.412,3.412,0,0,1-3.352,3.423Zm-1.7-14.4v10.979a1.748,1.748,0,0,0,1.7,1.752h18.3a1.748,1.748,0,0,0,1.7-1.752h-.014V2711.6a1.723,1.723,0,0,0-1.7-1.726l-3.076-.027a.846.846,0,0,1-.673-.377l-2.5-3.785h-5.893l-2.6,3.813a.826.826,0,0,1-.673.376h-2.871A1.724,1.724,0,0,0,1027.648,2711.6Zm5.082,4.522a5.839,5.839,0,1,1,5.838,5.914A5.88,5.88,0,0,1,1032.73,2716.119Zm1.649,0a4.19,4.19,0,1,0,4.189-4.244A4.226,4.226,0,0,0,1034.379,2716.119Zm10.866-3.464a1.14,1.14,0,1,1,1.14,1.154A1.145,1.145,0,0,1,1045.245,2712.655Zm.632,0a.508.508,0,1,0,1.016,0,.508.508,0,1,0-1.016,0Zm.184,0a.32.32,0,1,1,.319.32A.32.32,0,0,1,1046.06,2712.65Z" transform="translate(-1026 -2703.999)" fill="#e74c3c"/>
</svg>
