<svg xmlns="http://www.w3.org/2000/svg" width="31" height="25.967" viewBox="0 0 31 25.967">
  <path id="Forma_1" data-name="Forma 1" d="M1041.4,2559a3.4,3.4,0,0,0-1.459.315l-15.163,7.313a1.031,1.031,0,0,0,0,2l8.529,4.114a.459.459,0,0,0,.2.044l8.529-.152a.452.452,0,0,0,.188-.044l12-5.79a1.031,1.031,0,0,0,0-2l-11.372-5.485A3.4,3.4,0,0,0,1041.4,2559Zm0,.9a2.627,2.627,0,0,1,1.068.192l11.372,5.485c.265.128.278.225.278.22s-.012.093-.278.221l-11.808,5.7-4.227-2.038a.448.448,0,0,0-.392,0l-4.227,2.038-8.017-3.866c-.265-.128-.278-.225-.278-.221s.012-.093.278-.22l15.163-7.313A2.617,2.617,0,0,1,1041.4,2559.9Zm1.255,2.023a.216.216,0,0,0-.089.413l6.318,3.046a.222.222,0,0,0,.3-.091.214.214,0,0,0-.093-.292l-.011-.005-6.318-3.047A.225.225,0,0,0,1042.651,2561.922Zm-3.159,1.523a.219.219,0,0,0-.215.223.216.216,0,0,0,.126.189l6.318,3.048a.224.224,0,0,0,.3-.09.216.216,0,0,0-.093-.293l-.01,0-6.318-3.048A.226.226,0,0,0,1039.492,2563.445Zm-3.159,1.524a.219.219,0,0,0-.215.223.215.215,0,0,0,.126.189l6.318,3.048a.224.224,0,0,0,.3-.1.214.214,0,0,0-.1-.29l-6.318-3.048A.238.238,0,0,0,1036.333,2564.969Zm-5.459.153a.226.226,0,0,0-.1.023l-4.738,2.286a.214.214,0,0,0-.1.29.219.219,0,0,0,.1.1l2.211,1.066a.224.224,0,0,0,.3-.09.215.215,0,0,0-.093-.293l-.01,0-1.808-.873,4.335-2.091a.215.215,0,0,0,.1-.289A.22.22,0,0,0,1030.874,2565.122Zm6.731,5.425,2.589,1.249-5.378.1Zm16.775.053a.554.554,0,0,0-.244.056l-16.716,7.947-12.631-6.207a.543.543,0,0,0-.724.225.521.521,0,0,0,.231.71l.012.006,12.868,6.322a.546.546,0,0,0,.476,0l16.954-8.059a.523.523,0,0,0,.259-.7A.538.538,0,0,0,1054.381,2570.6Zm-11.652,4.21a.272.272,0,0,0-.121.03l-5.256,2.572-4.718-2.362a.272.272,0,0,0-.362.115.261.261,0,0,0,.117.354l4.84,2.421a.277.277,0,0,0,.243,0l5.377-2.632a.261.261,0,0,0,.125-.351A.27.27,0,0,0,1042.728,2574.809Zm11.652,1.041a.538.538,0,0,0-.244.056l-16.716,7.946-12.631-6.207a.543.543,0,0,0-.727.219.521.521,0,0,0,.223.711l.021.01,12.868,6.324a.548.548,0,0,0,.476,0l16.954-8.06a.52.52,0,0,0,.259-.7A.538.538,0,0,0,1054.381,2575.85Zm-11.652,4.209a.268.268,0,0,0-.121.029l-5.256,2.572-4.718-2.36a.273.273,0,0,0-.364.108.262.262,0,0,0,.112.357l.007,0,4.839,2.421a.274.274,0,0,0,.243,0l5.377-2.631a.26.26,0,0,0,.125-.351A.269.269,0,0,0,1042.728,2580.059Z" transform="translate(-1024 -2558.999)" fill="#e74c3c"/>
</svg>
