<svg xmlns="http://www.w3.org/2000/svg" width="27" height="22" viewBox="0 0 27 22">
  <path id="Forma_1" data-name="Forma 1" d="M1032.379,2440a.44.44,0,1,1,0-.88h5.192v-1.907a.445.445,0,0,1,.89,0v1.907h2.077v-1.907a.445.445,0,0,1,.89,0v1.907h5.192a.44.44,0,1,1,0,.88Zm17.95-3.959v-.148h-.89v.148a.445.445,0,0,1-.89,0v-.148h-.89v.148a.445.445,0,0,1-.89,0v-.148h-19.731a1.034,1.034,0,0,1-1.039-1.026v-15.84a1.034,1.034,0,0,1,1.039-1.027h24.923a1.034,1.034,0,0,1,1.039,1.027v15.84a1.034,1.034,0,0,1-1.039,1.026h-.742v.148a.445.445,0,0,1-.89,0Zm-23.44-17.014v15.84a.149.149,0,0,0,.148.146h24.923a.15.15,0,0,0,.149-.146v-15.84a.151.151,0,0,0-.149-.148h-24.923A.15.15,0,0,0,1026.89,2419.026Zm1.335,15.106a.443.443,0,0,1-.445-.441v-11.732a.445.445,0,0,1,.89,0v11.293h21.659v-1.907a.445.445,0,0,1,.89,0v2.346a.443.443,0,0,1-.446.441Zm22.1-4.547v-8.947h-22.1a.44.44,0,1,1,0-.879h22.549a.442.442,0,0,1,.446.439v9.387a.445.445,0,0,1-.89,0Z" transform="translate(-1026 -2418)" fill="#e74c3c"/>
</svg>
