<svg xmlns="http://www.w3.org/2000/svg" width="22" height="28" viewBox="0 0 22 28">
  <path id="Forma_1" data-name="Forma 1" d="M1462.6,5637.869a1.191,1.191,0,0,1-.6-1.111V5611.75a1.839,1.839,0,0,1,1.913-1.75h18.174a1.84,1.84,0,0,1,1.913,1.75v25.008a1.138,1.138,0,0,1-1.155,1.241,1.7,1.7,0,0,1-.8-.22l-8.051-4.352a2.4,2.4,0,0,0-1.984,0l-8.051,4.352a1.7,1.7,0,0,1-.8.22A1.175,1.175,0,0,1,1462.6,5637.869Zm11.874-5.194,8.051,4.353a.489.489,0,0,0,.392.082c.057-.03.122-.139.122-.351V5611.75a.92.92,0,0,0-.957-.875v.875a.48.48,0,0,1-.957,0v-.875H1464.87v.875a.48.48,0,0,1-.957,0v-.875a.92.92,0,0,0-.957.875v25.008c0,.212.065.321.122.351a.489.489,0,0,0,.392-.082l8.051-4.353a3.413,3.413,0,0,1,2.957,0Zm6.652,2.263v-18.812a.48.48,0,0,1,.957,0v18.812a.48.48,0,0,1-.957,0Zm-17.217,0v-18.812a.48.48,0,0,1,.957,0v18.812a.48.48,0,0,1-.957,0Zm17.217-20.562v-.875a.48.48,0,0,1,.957,0v.875a.48.48,0,0,1-.957,0Zm-17.217,0v-.875a.48.48,0,0,1,.957,0v.875a.48.48,0,0,1-.957,0Z" transform="translate(-1462 -5610)" fill="#fff"/>
</svg>
